<svg width="160" height="43" viewBox="0 0 160 43" fill="none" xmlns="http://www.w3.org/2000/svg">
<path d="M58.856 30.269V15.893H53.264V13.349H67.544V15.893H61.952V30.269H58.856ZM67.5924 30.269V21.245C67.5924 20.733 67.5764 20.213 67.5444 19.685C67.5284 19.157 67.4884 18.645 67.4244 18.149H70.3284L70.6644 21.461H70.1844C70.3444 20.661 70.6084 19.997 70.9764 19.469C71.3604 18.941 71.8244 18.549 72.3684 18.293C72.9124 18.037 73.5044 17.909 74.1444 17.909C74.4324 17.909 74.6644 17.925 74.8404 17.957C75.0164 17.973 75.1924 18.013 75.3684 18.077L75.3444 20.717C75.0404 20.589 74.7764 20.509 74.5524 20.477C74.3444 20.445 74.0804 20.429 73.7604 20.429C73.0724 20.429 72.4884 20.573 72.0084 20.861C71.5444 21.149 71.1924 21.549 70.9524 22.061C70.7284 22.573 70.6164 23.157 70.6164 23.813V30.269H67.5924ZM81.6011 30.509C80.5451 30.509 79.6171 30.261 78.8171 29.765C78.0171 29.253 77.3931 28.525 76.9451 27.581C76.4971 26.637 76.2731 25.509 76.2731 24.197C76.2731 22.885 76.4971 21.765 76.9451 20.837C77.3931 19.893 78.0171 19.173 78.8171 18.677C79.6171 18.165 80.5451 17.909 81.6011 17.909C82.6251 17.909 83.5211 18.165 84.2891 18.677C85.0731 19.173 85.5931 19.845 85.8491 20.693H85.5851L85.8491 18.149H88.7291C88.6811 18.645 88.6331 19.149 88.5851 19.661C88.5531 20.173 88.5371 20.677 88.5371 21.173V30.269H85.5611L85.5371 27.773H85.8251C85.5691 28.605 85.0491 29.269 84.2651 29.765C83.4811 30.261 82.5931 30.509 81.6011 30.509ZM82.4411 28.205C83.3851 28.205 84.1451 27.877 84.7211 27.221C85.2971 26.549 85.5851 25.541 85.5851 24.197C85.5851 22.853 85.2971 21.853 84.7211 21.197C84.1451 20.541 83.3851 20.213 82.4411 20.213C81.4971 20.213 80.7371 20.541 80.1611 21.197C79.5851 21.853 79.2971 22.853 79.2971 24.197C79.2971 25.541 79.5771 26.549 80.1371 27.221C80.7131 27.877 81.4811 28.205 82.4411 28.205ZM92.6199 30.269V20.405H90.2919V18.149H93.4599L92.6199 18.917V17.069C92.6199 15.565 93.0039 14.429 93.7719 13.661C94.5559 12.893 95.6999 12.509 97.2039 12.509C97.5559 12.509 97.9239 12.533 98.3079 12.581C98.7079 12.629 99.0519 12.717 99.3399 12.845V15.197C99.1319 15.117 98.8839 15.053 98.5959 15.005C98.3079 14.957 98.0279 14.933 97.7559 14.933C97.3399 14.933 96.9639 15.013 96.6279 15.173C96.3079 15.333 96.0519 15.581 95.8599 15.917C95.6839 16.237 95.5959 16.669 95.5959 17.213V18.677L95.1639 18.149H98.7879V20.405H95.6199V30.269H92.6199ZM105.203 30.509C104.147 30.509 103.219 30.261 102.419 29.765C101.619 29.253 100.995 28.525 100.547 27.581C100.099 26.637 99.8746 25.509 99.8746 24.197C99.8746 22.885 100.099 21.765 100.547 20.837C100.995 19.893 101.619 19.173 102.419 18.677C103.219 18.165 104.147 17.909 105.203 17.909C106.227 17.909 107.123 18.165 107.891 18.677C108.675 19.173 109.195 19.845 109.451 20.693H109.187L109.451 18.149H112.331C112.283 18.645 112.235 19.149 112.187 19.661C112.155 20.173 112.139 20.677 112.139 21.173V30.269H109.163L109.139 27.773H109.427C109.171 28.605 108.651 29.269 107.867 29.765C107.083 30.261 106.195 30.509 105.203 30.509ZM106.043 28.205C106.987 28.205 107.747 27.877 108.323 27.221C108.899 26.549 109.187 25.541 109.187 24.197C109.187 22.853 108.899 21.853 108.323 21.197C107.747 20.541 106.987 20.213 106.043 20.213C105.099 20.213 104.339 20.541 103.763 21.197C103.187 21.853 102.899 22.853 102.899 24.197C102.899 25.541 103.179 26.549 103.739 27.221C104.315 27.877 105.083 28.205 106.043 28.205ZM115.405 30.269V12.605H118.405V30.269H115.405ZM127.279 35.645C126.159 35.645 125.143 35.525 124.231 35.285C123.335 35.045 122.535 34.677 121.831 34.181L122.479 32.021C122.943 32.325 123.423 32.573 123.919 32.765C124.415 32.957 124.927 33.101 125.455 33.197C125.983 33.293 126.519 33.341 127.063 33.341C128.183 33.341 129.015 33.061 129.559 32.501C130.119 31.957 130.399 31.173 130.399 30.149V27.245H130.639C130.383 28.077 129.863 28.741 129.079 29.237C128.311 29.733 127.423 29.981 126.415 29.981C125.327 29.981 124.375 29.741 123.559 29.261C122.759 28.765 122.135 28.061 121.687 27.149C121.239 26.237 121.015 25.165 121.015 23.933C121.015 22.701 121.239 21.637 121.687 20.741C122.135 19.829 122.759 19.133 123.559 18.653C124.375 18.157 125.327 17.909 126.415 17.909C127.439 17.909 128.327 18.157 129.079 18.653C129.847 19.133 130.359 19.789 130.615 20.621L130.399 20.477L130.639 18.149H133.543C133.479 18.645 133.431 19.149 133.399 19.661C133.367 20.173 133.351 20.677 133.351 21.173V29.789C133.351 31.693 132.831 33.141 131.791 34.133C130.767 35.141 129.263 35.645 127.279 35.645ZM127.231 27.677C128.191 27.677 128.951 27.357 129.511 26.717C130.087 26.061 130.375 25.133 130.375 23.933C130.375 22.733 130.087 21.813 129.511 21.173C128.951 20.533 128.191 20.213 127.231 20.213C126.255 20.213 125.479 20.533 124.903 21.173C124.327 21.813 124.039 22.733 124.039 23.933C124.039 25.133 124.327 26.061 124.903 26.717C125.479 27.357 126.255 27.677 127.231 27.677ZM141.273 30.509C140.217 30.509 139.289 30.261 138.489 29.765C137.689 29.253 137.065 28.525 136.617 27.581C136.169 26.637 135.945 25.509 135.945 24.197C135.945 22.885 136.169 21.765 136.617 20.837C137.065 19.893 137.689 19.173 138.489 18.677C139.289 18.165 140.217 17.909 141.273 17.909C142.297 17.909 143.193 18.165 143.961 18.677C144.745 19.173 145.265 19.845 145.521 20.693H145.257L145.521 18.149H148.401C148.353 18.645 148.305 19.149 148.257 19.661C148.225 20.173 148.209 20.677 148.209 21.173V30.269H145.233L145.209 27.773H145.497C145.241 28.605 144.721 29.269 143.937 29.765C143.153 30.261 142.265 30.509 141.273 30.509ZM142.113 28.205C143.057 28.205 143.817 27.877 144.393 27.221C144.969 26.549 145.257 25.541 145.257 24.197C145.257 22.853 144.969 21.853 144.393 21.197C143.817 20.541 143.057 20.213 142.113 20.213C141.169 20.213 140.409 20.541 139.833 21.197C139.257 21.853 138.969 22.853 138.969 24.197C138.969 25.541 139.249 26.549 139.809 27.221C140.385 27.877 141.153 28.205 142.113 28.205ZM151.452 30.269V21.245C151.452 20.733 151.436 20.213 151.404 19.685C151.388 19.157 151.348 18.645 151.284 18.149H154.188L154.524 21.461H154.044C154.204 20.661 154.468 19.997 154.836 19.469C155.22 18.941 155.684 18.549 156.228 18.293C156.772 18.037 157.364 17.909 158.004 17.909C158.292 17.909 158.524 17.925 158.7 17.957C158.876 17.973 159.052 18.013 159.228 18.077L159.204 20.717C158.9 20.589 158.636 20.509 158.412 20.477C158.204 20.445 157.94 20.429 157.62 20.429C156.932 20.429 156.348 20.573 155.868 20.861C155.404 21.149 155.052 21.549 154.812 22.061C154.588 22.573 154.476 23.157 154.476 23.813V30.269H151.452Z" fill="white"/>
<ellipse cx="20.5" cy="21.4179" rx="20.5" ry="21.4179" fill="white"/>
<path d="M19.344 31.2241V15.6501H13.286V12.8941H28.756V15.6501H22.698V31.2241H19.344Z" fill="#5B9BF3"/>
</svg>
